<svg width="28" height="22" viewBox="0 0 28 22" fill="none" xmlns="http://www.w3.org/2000/svg">
<g clip-path="url(#clip0_964_17642)">
<path d="M27.5001 2.61333C26.5083 3.04291 25.4289 3.35208 24.3172 3.4725C25.4714 2.78397 26.3358 1.69622 26.7481 0.413327C25.665 1.06027 24.4784 1.51392 23.241 1.75415C22.7239 1.19903 22.0984 0.756799 21.4036 0.455008C20.7087 0.153216 19.9595 -0.00166557 19.2024 1.35072e-05C16.1394 1.35072e-05 13.676 2.49291 13.676 5.55208C13.676 5.98167 13.7279 6.41125 13.8121 6.82457C9.22569 6.58374 5.13518 4.38374 2.41573 1.0154C1.92022 1.86518 1.66055 2.83276 1.66375 3.81747C1.66375 5.74409 2.63938 7.44291 4.12713 8.44202C3.25038 8.40735 2.39415 8.16539 1.6281 7.73581V7.80415C1.6281 10.5021 3.52749 12.7379 6.05895 13.2521C5.58364 13.376 5.09468 13.4395 4.6036 13.4408C4.24382 13.4408 3.90348 13.405 3.55991 13.3562C4.26003 15.5562 6.2988 17.1541 8.72653 17.2062C6.82713 18.7 4.44802 19.5787 1.86471 19.5787C1.40121 19.5787 0.973354 19.5624 0.529297 19.5104C2.97972 21.0888 5.88716 22 9.01825 22C19.1829 22 24.745 13.545 24.745 6.20622C24.745 5.96539 24.745 5.72457 24.7288 5.48374C25.8049 4.69291 26.7481 3.71332 27.5001 2.61333Z" fill="#21A6DF"/>
</g>
<defs>
<clipPath id="clip0_964_17642">
<rect width="27" height="22" fill="white" transform="translate(0.5)"/>
</clipPath>
</defs>
</svg>
