<svg width="30" height="24" viewBox="0 0 30 24" fill="none" xmlns="http://www.w3.org/2000/svg">
<path d="M28.8882 3.89844C28.7232 3.20379 28.4 2.57044 27.9511 2.06177C27.5021 1.5531 26.9432 1.18695 26.3301 0.999972C24.0724 0.307625 19.6294 0.999966 19.6294 0.999966C19.6294 0.999966 5.92763 0.307625 3.66989 0.999972C3.05683 1.18695 2.49785 1.5531 2.04892 2.06177C1.59998 2.57044 1.27684 3.20379 1.11182 3.89844C0.690248 6.50738 0.485672 9.15538 0.500779 11.8076C0.485672 14.4599 0.690248 17.1079 1.11182 19.7168C1.27684 20.4115 1.59998 21.0448 2.04892 21.5535C2.49785 22.0622 3.05683 22.4283 3.66989 22.6153C5.92763 23.3076 15 23.3076 15 23.3076C15 23.3076 24.0724 23.3076 26.3301 22.6153C26.9432 22.4283 27.5021 22.0622 27.9511 21.5535C28.4 21.0448 28.7232 20.4115 28.8882 19.7168C29.3097 17.1079 29.5143 14.4599 29.4992 11.8076C29.5143 9.15538 29.3097 6.50738 28.8882 3.89844ZM12.1002 16.7362V6.87905L19.6294 11.8076L12.1002 16.7362Z" fill="#E42F08"/>
</svg>
